{"title":"Blunt.Talk.S01E02.WEBRip.x264-Abjex","uid":12237075,"size":289738306,"categoryP":"other","categoryS":"other","magnet":"?xt=urn:btih:c79f9d237a27d27cefa3e15c238027993081a89d&amp;dn=Blunt.Talk.S01E02.WEBRip.x264-Abjex&amp;tr=udp%3A%2F%2Ftracker.openbittorrent.com%3A80&amp;tr=udp%3A%2F%2Fopen.demonii.com%3A1337&amp;tr=udp%3A%2F%2Ftracker.coppersurfer.tk%3A6969&amp;tr=udp%3A%2F%2Fexodus.desync.com%3A6969","seeders":14,"leechers":3,"uploader":"toots2boots","files":1,"time":1439681358,"description":"Walter Blunt is a British transplant intent on conquering the world of American cable news. Through the platform of his nightly interview show, Blunt is on a mission to impart his wisdom and guidance on how Americans should live, think and behave. Besieged by network bosses, a dysfunctional news staff, numerous ex-wives and children of all ages, Blunts only supporter is the alcoholic manservant he brought with him from the U.K. to join him in Los Angeles. The series follows the fallout from Blunts well-intentioned, but mostly misguided decision-making, both on and off the air\n\nGeneral\nComplete name                            : M:PostsBlunt.Talk.S01E02.WEBRip.x264-AbjexBlunt.Talk.S01E02.WEBRip.x264-Abjex.mp4\nFormat                                   : MPEG-4\nFormat profile                           : Base Media / Version 2\nCodec ID                                 : mp42\nFile size                                : 276 MiB\nDuration                                 : 30mn 44s\nOverall bit rate                         : 1 257 Kbps\nEncoded date                             : UTC 2015-08-15 17:36:13\nTagged date                              : UTC 2015-08-15 17:36:13\nstik                                     : \t\niTunMOVI                                 : &lt;?xml version=&quot;1.0&quot; encoding=&quot;UTF-8&quot;?&gt;&lt;!DOCTYPE plist PUBLIC &quot;-//Apple Computer//DTD PLIST 1.0//EN&quot;  &quot;http://www.apple.com/DTDs/PropertyList-1.0.dtd&quot;&gt;&lt;plist version=&quot;1.0&quot;&gt;&lt;dict&gt;&lt;key&gt;studio&lt;/key&gt;&lt;string&gt;studio&lt;/string&gt;&lt;key&gt;cast&lt;/key&gt;&lt;array&gt;&lt;dict&gt;&lt;key&gt;name&lt;/key&gt;&lt;string&gt;&lt;/string&gt;&lt;/dict&gt;&lt;/array&gt;&lt;key&gt;directors&lt;/key&gt;&lt;array&gt;&lt;dict&gt;&lt;key&gt;name&lt;/key&gt;&lt;string&gt;&lt;/string&gt;&lt;/dict&gt;&lt;/array&gt;&lt;key&gt;producers&lt;/key&gt;&lt;array&gt;&lt;dict&gt;&lt;key&gt;name&lt;/key&gt;&lt;string&gt;&lt;/string&gt;&lt;/dict&gt;&lt;/array&gt;&lt;key&gt;codirectors&lt;/key&gt;&lt;array&gt;&lt;dict&gt;&lt;key&gt;name&lt;/key&gt;&lt;string&gt;codirector&lt;/string&gt;&lt;/dict&gt;&lt;/array&gt;&lt;key&gt;screenwriters&lt;/key&gt;&lt;array&gt;&lt;dict&gt;&lt;key&gt;name&lt;/key&gt;&lt;string&gt;&lt;/string&gt;&lt;/dict&gt;&lt;/array&gt;&lt;/dict&gt;&lt;/plist&gt;\n\nVideo\nID                                       : 1\nFormat                                   : AVC\nFormat/Info                              : Advanced Video Codec\nFormat profile                           : &lt;a class=&quot;__cf_email__&quot; href=&quot;/cdn-cgi/l/email-protection&quot; data-cfemail=&quot;094468606749453d2738&quot;&gt;[email&amp;#160;protected]&lt;/a&gt;&lt;script data-cfhash='f9e31' type=&quot;text/javascript&quot;&gt;\n/* &lt;![CDATA[ */!function(){try{var t=&quot;currentScript&quot;in document?document.currentScript:function(){for(var t=document.getElementsByTagName(&quot;script&quot;),e=t.length;e--;)if(t[e].getAttribute(&quot;data-cfhash&quot;))return t[e]}();if(t&amp;&amp;t.previousSibling){var e,r,n,i,c=t.previousSibling,a=c.getAttribute(&quot;data-cfemail&quot;);if(a){for(e=&quot;&quot;,r=parseInt(a.substr(0,2),16),n=2;a.length-n;n+=2)i=parseInt(a.substr(n,2),16)^r,e+=String.fromCharCode(i);e=document.createTextNode(e),c.parentNode.replaceChild(e,c)}t.parentNode.removeChild(t);}}catch(u){}}()/* ]]&gt; */&lt;/script&gt;\nFormat settings, CABAC                   : Yes\nFormat settings, ReFrames                : 2 frames\nMuxing mode                              : Container profile=&lt;a class=&quot;__cf_email__&quot; href=&quot;/cdn-cgi/l/email-protection&quot; data-cfemail=&quot;296b485a4c4540474c691a0719&quot;&gt;[email&amp;#160;protected]&lt;/a&gt;&lt;script data-cfhash='f9e31' type=&quot;text/javascript&quot;&gt;\n/* &lt;![CDATA[ */!function(){try{var t=&quot;currentScript&quot;in document?document.currentScript:function(){for(var t=document.getElementsByTagName(&quot;script&quot;),e=t.length;e--;)if(t[e].getAttribute(&quot;data-cfhash&quot;))return t[e]}();if(t&amp;&amp;t.previousSibling){var e,r,n,i,c=t.previousSibling,a=c.getAttribute(&quot;data-cfemail&quot;);if(a){for(e=&quot;&quot;,r=parseInt(a.substr(0,2),16),n=2;a.length-n;n+=2)i=parseInt(a.substr(n,2),16)^r,e+=String.fromCharCode(i);e=document.createTextNode(e),c.parentNode.replaceChild(e,c)}t.parentNode.removeChild(t);}}catch(u){}}()/* ]]&gt; */&lt;/script&gt;\nCodec ID                                 : avc1\nCodec ID/Info                            : Advanced Video Coding\nDuration                                 : 30mn 44s\nBit rate                                 : 1 152 Kbps\nWidth                                    : 720 pixels\nHeight                                   : 404 pixels\nDisplay aspect ratio                     : 16:9\nFrame rate mode                          : Constant\nFrame rate                               : 23.976 fps\nColor space                              : YUV\nChroma subsampling                       : 4:2:0\nBit depth                                : 8 bits\nScan type                                : Progressive\nBits/(Pixel*Frame)                       : 0.165\nStream size                              : 253 MiB (92%)\nLanguage                                 : English\n\nAudio\nID                                       : 2\nFormat                                   : AAC\nFormat/Info                              : Advanced Audio Codec\nFormat profile                           : LC\nCodec ID                                 : 40\nDuration                                 : 30mn 44s\nBit rate mode                            : Constant\nBit rate                                 : 98.0 Kbps\nChannel(s)                               : 2 channels\nChannel positions                        : Front: L R\nSampling rate                            : 48.0 KHz\nCompression mode                         : Lossy\nStream size                              : 21.5 MiB (8%)\nLanguage                                 : English","torrent":{"xt":"urn:btih:c79f9d237a27d27cefa3e15c238027993081a89d","amp;dn":"Blunt.Talk.S01E02.WEBRip.x264-Abjex","amp;tr":["udp%3A%2F%2Ftracker.openbittorrent.com%3A80","udp%3A%2F%2Fopen.demonii.com%3A1337","udp%3A%2F%2Ftracker.coppersurfer.tk%3A6969","udp%3A%2F%2Fexodus.desync.com%3A6969"],"infoHash":"c79f9d237a27d27cefa3e15c238027993081a89d","infoHashBuffer":{"type":"Buffer","data":[199,159,157,35,122,39,210,124,239,163,225,92,35,128,39,153,48,129,168,157]},"announce":[],"urlList":[]}}